Coordinates
version=1
nRows=10
nColumns=22
inDegrees=yes

Units are S.I. units (second, meters, Newtons, ...)
If the header above contains a line with 'inDegrees', this indicates whether rotational values are in degrees (yes) or radians (no).

endheader
time	pelvis_tilt	pelvis_list	pelvis_rotation	pelvis_tx	pelvis_ty	pelvis_tz	hip_flexion_r	hip_adduction_r	hip_rotation_r	knee_angle_r	ankle_angle_r	subtalar_angle_r	hip_flexion_l	hip_adduction_l	hip_rotation_l	knee_angle_l	ankle_angle_l	subtalar_angle_l	lumbar_extension	lumbar_bending	lumbar_rotation
      2.77000000	     -9.78786082	     -1.88431915	     -4.54681061	      0.09357557	      0.95406425	      0.23913215	     10.34316821	      2.44459127	     -1.17135697	    -49.96761666	      7.18151998	     11.18110920	     37.03218581	      0.66817421	     -3.41737322	    -34.22062556	     12.37609713	     -3.15474001	     -0.80612116	      3.15913752	     10.36881849
      2.78000000	     -9.88307581	     -1.36704932	     -4.54262528	      0.10254404	      0.95467077	      0.23836114	     11.91788699	      1.63946277	     -1.09251768	    -52.72530631	      5.46605458	     10.10092112	     36.46683980	      1.24228909	     -3.67717880	    -34.02127806	     12.93542864	     -3.32475339	     -0.63738044	      2.59047971	     10.05454838
      2.79000000	     -9.93430750	     -0.85423400	     -4.52240272	      0.11140860	      0.95530535	      0.23760420	     13.49146601	      0.85080744	     -0.97545997	    -55.40159505	      3.97241084	      8.83050759	     35.85419104	      1.83480971	     -3.88766851	    -33.79658407	     13.46116802	     -3.49956692	     -0.52769260	      2.02222201	      9.69488740
      2.80000000	     -9.93573475	     -0.34598923	     -4.49458922	      0.12022203	      0.95599088	      0.23685703	     15.03915906	      0.07690100	     -0.81691598	    -57.94696609	      2.81480348	      7.58126952	     35.18033401	      2.43955303	     -4.06936597	    -33.54195993	     13.97197893	     -3.67501709	     -0.47592336	      1.45916752	      9.29060566
      2.81000000	     -9.88467167	      0.12979462	     -4.45725910	      0.12897710	      0.95674922	      0.23609736	     16.54569450	     -0.66340021	     -0.65014827	    -60.31891056	      2.01266627	      6.43997383	     34.44926710	      3.03424276	     -4.20102037	    -33.27462574	     14.44419621	     -3.85456681	     -0.49110896	      0.93461679	      8.88324750
      2.82000000	     -9.79630240	      0.57065266	     -4.41961631	      0.13770296	      0.95758256	      0.23535163	     18.00912988	     -1.35299347	     -0.45008004	    -62.47628188	      1.61042517	      5.50232393	     33.66545140	      3.60499482	     -4.30356776	    -32.97949865	     14.91035919	     -4.03004559	     -0.54884314	      0.45518738	      8.44885842
      2.83000000	     -9.67854581	      0.95433996	     -4.37439415	      0.14639654	      0.95851287	      0.23460844	     19.42348567	     -1.97058544	     -0.24330759	    -64.38416860	      1.50613735	      4.68293646	     32.83263134	      4.13429238	     -4.35806091	    -32.65141723	     15.35089021	     -4.20417406	     -0.64134333	      0.04847214	      7.98446432
      2.84000000	     -9.54286493	      1.29047899	     -4.30958782	      0.15504906	      0.95951502	      0.23385511	     20.79437622	     -2.52904397	     -0.03771826	    -66.03664758	      1.71164532	      4.19805286	     31.96698576	      4.62983444	     -4.37639443	    -32.29694739	     15.75605885	     -4.30376983	     -0.75611107	     -0.29859342	      7.48559558
      2.85000000	     -9.40050731	      1.53657746	     -4.25629676	      0.16362723	      0.96056040	      0.23317545	     22.12739630	     -2.96567081	      0.15660465	    -67.41273104	      1.97053968	      3.33427417	     31.09183147	      5.02531083	     -4.37964905	    -31.94742111	     16.20655692	     -4.52078727	     -0.88714117	     -0.53980402	      7.03059452
      2.86000000	     -9.25659649	      1.72710754	     -4.17012468	      0.17215885	      0.96166394	      0.23250038	     23.41111501	     -3.32583872	      0.33308482	    -68.50687929	      2.38445116	      2.74165559	     30.19490496	      5.37903660	     -4.33285435	    -31.56163086	     16.61523919	     -4.64545281	     -1.02087611	     -0.71593406	      6.53093476
